<svg width="220" height="221" xmlns="http://www.w3.org/2000/svg" xmlns:xlink="http://www.w3.org/1999/xlink" xml:space="preserve" overflow="hidden"><defs><clipPath id="clip0"><rect x="971" y="1309" width="220" height="221"/></clipPath></defs><g clip-path="url(#clip0)" transform="translate(-971 -1309)"><path d="M1080.33 1309C1074.93 1309 1068.18 1310.36 1062.78 1310.36 1062.78 1310.36 1061.43 1310.36 1061.43 1310.36 1061.43 1310.36 1061.43 1310.36 1060.08 1311.71 1045.23 1314.42 1031.74 1319.85 1019.59 1327.98 1019.59 1327.98 1019.59 1327.98 1019.59 1327.98 989.896 1348.32 971 1380.86 971 1420.18 971 1458.14 989.896 1492.04 1019.59 1512.37 1019.59 1512.37 1019.59 1512.37 1019.59 1512.37 1037.14 1523.22 1058.73 1530 1080.33 1530 1085.72 1530 1089.77 1530 1095.17 1530 1095.17 1530 1095.17 1530 1095.17 1530 1095.17 1530 1095.17 1530 1095.17 1530 1115.42 1527.29 1132.96 1519.15 1147.81 1506.95 1147.81 1506.95 1149.16 1506.95 1149.16 1506.95 1174.8 1486.61 1191 1455.43 1191 1420.18 1191 1359.17 1141.06 1309 1080.33 1309ZM1020.94 1371.37C1027.69 1371.37 1033.09 1376.79 1033.09 1383.57 1033.09 1390.35 1027.69 1394.42 1020.94 1394.42 1015.54 1394.42 1010.14 1390.35 1010.14 1383.57 1010.14 1376.79 1015.54 1371.37 1020.94 1371.37ZM1010.14 1433.74C1010.14 1426.96 1015.54 1421.53 1020.94 1421.53 1027.69 1421.53 1033.09 1426.96 1033.09 1433.74 1033.09 1439.16 1027.69 1444.58 1020.94 1444.58 1015.54 1444.58 1010.14 1439.16 1010.14 1433.74ZM1058.73 1520.51C1046.58 1517.8 1034.44 1513.73 1024.99 1506.95 1024.99 1451.36 1024.99 1451.36 1024.99 1451.36 1033.09 1450.01 1039.83 1441.87 1039.83 1433.74 1039.83 1422.89 1031.74 1414.75 1020.94 1414.75 1011.49 1414.75 1002.04 1422.89 1002.04 1433.74 1002.04 1441.87 1008.79 1450.01 1018.24 1451.36 1018.24 1501.53 1018.24 1501.53 1018.24 1501.53 993.945 1482.55 977.749 1452.72 977.749 1420.18 977.749 1386.28 993.945 1356.45 1018.24 1337.47 1018.24 1364.59 1018.24 1364.59 1018.24 1364.59 1008.79 1365.94 1002.04 1374.08 1002.04 1383.57 1002.04 1393.06 1011.49 1402.55 1020.94 1402.55 1031.74 1402.55 1039.83 1393.06 1039.83 1383.57 1039.83 1374.08 1033.09 1365.94 1024.99 1364.59 1024.99 1333.4 1024.99 1333.4 1024.99 1333.4 1034.44 1326.63 1046.58 1321.2 1058.73 1318.49 1058.73 1435.09 1058.73 1435.09 1058.73 1435.09 1049.28 1436.45 1042.53 1444.58 1042.53 1454.07 1042.53 1462.21 1049.28 1470.34 1058.73 1471.7L1058.73 1520.51ZM1050.63 1454.07C1050.63 1447.29 1056.03 1441.87 1061.43 1441.87 1068.18 1441.87 1073.58 1447.29 1073.58 1454.07 1073.58 1459.5 1068.18 1464.92 1061.43 1464.92 1056.03 1464.92 1050.63 1459.5 1050.63 1454.07ZM1146.46 1460.85C1139.71 1460.85 1134.31 1455.43 1134.31 1448.65 1134.31 1443.23 1139.71 1437.8 1146.46 1437.8 1153.21 1437.8 1158.61 1443.23 1158.61 1448.65 1158.61 1455.43 1153.21 1460.85 1146.46 1460.85ZM1150.51 1496.1C1150.51 1467.63 1150.51 1467.63 1150.51 1467.63 1158.61 1466.28 1165.36 1458.14 1165.36 1448.65 1165.36 1439.16 1157.26 1429.67 1146.46 1429.67 1135.66 1429.67 1127.56 1439.16 1127.56 1448.65 1127.56 1458.14 1134.31 1466.28 1142.41 1467.63 1142.41 1501.53 1142.41 1501.53 1142.41 1501.53 1130.26 1512.37 1115.42 1519.15 1097.87 1521.87 1097.87 1519.15 1097.87 1519.15 1097.87 1519.15 1097.87 1418.82 1097.87 1418.82 1097.87 1418.82 1146.46 1418.82 1146.46 1418.82 1146.46 1418.82 1147.81 1418.82 1150.51 1417.47 1150.51 1416.11 1150.51 1401.2 1150.51 1401.2 1150.51 1401.2 1158.61 1399.84 1165.36 1393.06 1165.36 1383.57 1165.36 1372.72 1157.26 1364.59 1146.46 1364.59 1135.66 1364.59 1127.56 1372.72 1127.56 1383.57 1127.56 1393.06 1134.31 1399.84 1142.41 1401.2 1142.41 1412.04 1142.41 1412.04 1142.41 1412.04 1095.17 1412.04 1095.17 1412.04 1095.17 1412.04 1092.47 1412.04 1091.12 1413.4 1091.12 1416.11 1091.12 1519.15 1091.12 1519.15 1091.12 1519.15 1091.12 1523.22 1091.12 1523.22 1091.12 1523.22 1087.07 1523.22 1084.37 1523.22 1080.33 1523.22 1074.93 1523.22 1070.88 1523.22 1065.48 1521.87 1065.48 1471.7 1065.48 1471.7 1065.48 1471.7 1074.93 1470.34 1080.33 1462.21 1080.33 1454.07 1080.33 1444.58 1074.93 1436.45 1065.48 1435.09 1065.48 1317.14 1065.48 1317.14 1065.48 1317.14 1070.88 1317.14 1074.93 1315.78 1080.33 1315.78 1084.37 1315.78 1087.07 1317.14 1091.12 1317.14 1091.12 1341.54 1091.12 1341.54 1091.12 1341.54 1083.02 1344.25 1076.28 1351.03 1076.28 1360.52 1076.28 1371.37 1084.37 1379.5 1095.17 1379.5 1104.62 1379.5 1114.07 1371.37 1114.07 1360.52 1114.07 1351.03 1107.32 1344.25 1097.87 1341.54 1097.87 1318.49 1097.87 1318.49 1097.87 1318.49 1146.46 1326.63 1184.25 1368.66 1184.25 1420.18 1184.25 1450.01 1170.75 1477.12 1150.51 1496.1ZM1134.31 1383.57C1134.31 1376.79 1139.71 1371.37 1146.46 1371.37 1153.21 1371.37 1158.61 1376.79 1158.61 1383.57 1158.61 1390.35 1153.21 1394.42 1146.46 1394.42 1139.71 1394.42 1134.31 1390.35 1134.31 1383.57ZM1095.17 1349.67C1100.57 1349.67 1105.97 1353.74 1105.97 1360.52 1105.97 1367.3 1100.57 1372.72 1095.17 1372.72 1088.42 1372.72 1083.02 1367.3 1083.02 1360.52 1083.02 1353.74 1088.42 1349.67 1095.17 1349.67Z" fill="#FFFFFF" fill-rule="evenodd"/></g></svg>